<svg xmlns="http://www.w3.org/2000/svg" viewBox="822.99 615.25 49.8 18.6"><path fill="#5d7892" d="M834.66 618.67c.3 1.48.22 2.86-.22 4.14q-.66 1.935-1.95 3.69c-.45.57-.96.91-1.56 1.02-.3.08-.55.12-.75.14s-.44-.08-.7-.31c-.3-.34-.58-.69-.86-1.05s-.42-.8-.42-1.33c0-.08.01-.14.03-.2s.03-.12.03-.2c.04-.11.05-.3.05-.57q0-.12.03-.45c.02-.23-.03-.34-.14-.34-.08-.11-.18-.08-.31.08s-.23.29-.31.37c-.11.23-.17.51-.17.85-.07.3-.22.49-.44.57s-.39-.04-.5-.34l-.22-.62c-.41.19-.76.45-1.06.79s-.58.74-.83 1.19c-.33.53-.49 1.01-.47 1.45.02.43.09.82.22 1.16s.29.63.47.88.28.42.28.54q.06.285 0 .51c-.06.225-.13.23-.28.23-.04.04-.13 0-.28-.11l-.39-.45c-.41-.64-.71-1.36-.92-2.16-.21-.79-.1-1.59.31-2.38.18-.38.45-.81.81-1.31q.525-.735 1.08-1.02c.3-.15.57-.27.83-.37.26-.09.52-.18.78-.25.07-.08.17-.11.28-.11l.39-.17.33-.11c.07-.08.15-.11.22-.11.26-.11.39-.36.39-.74-.04-.3.04-.59.22-.85.07-.53.28-1.06.61-1.59.41-.57.85-.87 1.33-.91.48-.08.87 0 1.17.23s.35.59.17 1.08c-.19.49-.48 1-.89 1.53-.22.3-.43.56-.61.77-.19.21-.39.37-.61.48-.26.15-.39.25-.39.28-.08.15-.11.38-.11.68 0 .45-.05.84-.14 1.16s-.15.62-.17.91.06.55.22.79.51.5 1.03.77c.33-.19.7-.39 1.08-.6.39-.21.64-.52.75-.94q.885-1.425 1.17-2.61t.33-2.16q.06-.96.03-1.65c-.03-.69.06-.79.25-1.02.11-.26.26-.25.44.06.18.19.29.41.37.68m-6.9 12.94c.3-.42.6-.49.92-.23.31.27.38.64.19 1.13-.11.3-.28.42-.5.34s-.41-.11-.56-.11c-.3 0-.59.03-.89.08-.3.06-.61.05-.95-.03-.15 0-.26-.09-.33-.28 0-.11.09-.2.28-.25.18-.06.39-.11.61-.17s.45-.12.7-.2c.25-.07.42-.17.53-.28m3.06-12.32c0-.08-.07-.11-.22-.11q-.45 0-.81.57c-.24.38-.4.7-.47.96-.04.26 0 .49.11.68.04-.04.13-.16.28-.37s.31-.43.5-.68c.18-.25.34-.47.47-.68s.18-.33.14-.37m1.34 8.17q0-.45.39-.51c.18 0 .33.21.44.63q.06.345.06.57v.62c-.07.49-.19.91-.33 1.25-.11.27-.24.36-.39.28s-.22-.26-.22-.57-.01-.7-.03-1.19c-.03-.49 0-.85.08-1.08m6.67 2.56c.33 0 .64-.01.92-.03s.53-.08.75-.2c0 .04.06.08.17.11-.19.3-.33.45-.45.45-.04 0-.13.02-.28.06s-.32.08-.5.14c-.19.06-.36.11-.53.17s-.31.08-.42.08q-.225.06-.36.06h-.25c-.3.04-.66 0-1.08-.11a3.9 3.9 0 0 1-1.17-.51c-.35-.23-.65-.5-.89-.82s-.32-.65-.25-.99c.04-.11.08-.21.14-.28.05-.08.12-.17.19-.28s.17-.22.28-.31.2-.18.28-.26c.26-.19.63-.46 1.11-.82s.83-.58 1.06-.65l.39-.28c.19-.04.5-.19.95-.45.41-.23.61-.38.61-.45v-1.02c.04-.19.06-.51.08-.96s.06-.78.14-.96c.26-.49.45-.83.58-1.02s.24-.32.33-.4.22-.17.39-.28.45-.36.86-.74c.18-.08.44-.16.78-.26.33-.09.65-.14.95-.14s.55.08.75.23.29.42.25.79c0 .15-.02.27-.06.34-.11.11-.18.22-.19.31-.02.1-.05.2-.08.31-.04.11-.12.26-.25.45s-.34.45-.64.79c-.11.11-.22.22-.33.31s-.2.2-.28.31c-.26.15-.5.27-.72.37s-.45.22-.67.37c-.3.15-.44.3-.44.45 0 .11.06.17.19.17h.44q.255 0 .45.09c.195.09.19.2.19.43q.165.39-.33.51c-.19 0-.34.01-.47.03q-.195.03-.42.03c-.04 0-.09.08-.17.23l-.11.45c-.08.3-.21.45-.42.43s-.31-.12-.31-.31c0-.15-.04-.26-.11-.34-.15 0-.28.09-.39.28-.08.15-.31.3-.7.45s-.7.28-.92.4c-.11.08-.3.19-.56.34q-.39.225-.78.48c-.26.17-.49.35-.7.54s-.31.36-.31.51c0 .34.13.61.39.79.26.19.57.33.95.43.37.09.74.15 1.11.17.4 0 .68.01.86.01m-1.17-9.25q0 .51-.39.51c-.26 0-.37-.09-.33-.28s.09-.36.17-.51c.04-.11.09-.17.17-.17.33-.08.46.07.38.45m3.56-.12q-.285.345-.42.54c-.09.13-.16.25-.19.37-.04.11-.07.26-.08.43-.02.17-.03.41-.03.71 0 .11.07.17.22.17.11-.04.31-.15.58-.34.28-.19.55-.41.81-.65.26-.25.49-.5.69-.77s.31-.51.31-.74c-.11-.3-.27-.44-.47-.43-.21.02-.46.07-.75.14-.11.01-.33.2-.67.57m6.62-2.04c-.19.53-.23 1.02-.14 1.47s.06.91-.08 1.36c-.08.34-.23.81-.47 1.42s-.51 1.02-.81 1.25c-.3.19-.52.39-.67.6s-.29.43-.42.65c-.13.23-.26.45-.39.68s-.33.47-.58.74c-.41.42-.75.68-1.03.79s-.68.25-1.2.4c-.48.15-.93.19-1.33.11-.11-.04-.16-.18-.14-.43s.18-.33.47-.26c.48.08.94-.04 1.36-.34.43-.3.79-.63 1.08-.96.3-.38.62-.88.97-1.5.35-.63.7-1.05 1.03-1.28q.66-.39.78-1.02c.07-.42.2-.72.39-.91q.105-.795.06-1.56c-.04-.51.04-.99.22-1.45.19-.42.4-.56.64-.43.25.15.34.37.26.67m-2.89 8.57q-.06-.45.33-.45c.26 0 .43.19.5.57.07.42.07.71 0 .88s-.17.41-.28.71q-.33.795-.78.45c-.3-.23-.33-.57-.11-1.02.3-.31.41-.69.34-1.14m6.51-5.05q0-.45.33-.45.39 0 .45.45c.18.45.25.97.19 1.56q-.09.885-.36 1.5c-.3.68-.6 1.02-.92 1.02h-1.08c-.33.04-.63.23-.89.57-.19.3-.36.47-.53.51s-.34.25-.53.62c-.07.15-.19.24-.36.26a.83.83 0 0 1-.47-.08c-.15-.15-.22-.28-.22-.4 0-.08.06-.21.2-.4.13-.19.29-.38.47-.57s.35-.37.5-.54.26-.29.33-.37c.59-.53 1.24-.74 1.95-.62.37.04.65-.11.83-.45.11-.3.17-.72.17-1.25-.01-.53-.03-.98-.06-1.36m-1.56 5.22c.04-.3.13-.49.28-.57.26-.11.43.02.5.4s.1.72.08 1.02q-.03.45.03.96c.04.45-.08.68-.33.68-.22 0-.39-.15-.5-.45-.08-.34-.11-.68-.11-1.02s.01-.68.05-1.02m22.36-11.75c.04.08.1.26.2.54.09.28.17.58.22.88.06.3.09.59.11.85q.03.405-.03.51c-.11.34-.28.67-.5.99q-.33.48-.78.96c-.3.32-.59.62-.89.88s-.58.51-.83.74c-.74.57-1.54 1.11-2.39 1.62s-1.75.95-2.7 1.3c-.95.36-1.9.63-2.87.82s-1.91.23-2.84.11c-1.22-.15-2.21-.51-2.95-1.08-.07.04-.11.12-.11.25v.43c0 .15-.03.29-.08.43-.06.13-.18.22-.36.26-.3.08-.45-.05-.47-.37s-.03-.63-.03-.94c-.37.15-.59.45-.67.91-.08.68-.1 1.38-.08 2.1q.03 1.08.03 2.16v.63c0 .31.02.62.06.94s.09.62.17.88c.07.27.17.44.28.51.11.11.13.26.06.43-.08.17-.18.3-.31.4s-.28.13-.44.11q-.255-.03-.36-.48c-.11-.38-.21-.68-.28-.91-.08-.23-.13-.44-.17-.65s-.07-.44-.08-.71-.01-.63.03-1.08c.04-.3.06-.59.08-.85s.03-.55.03-.85q.06-.45 0-1.05c-.04-.4-.04-.8 0-1.22.07-.76.35-1.34.83-1.76.33-.23.61-.45.83-.68.07-.08.11-.15.11-.23s.02-.15.06-.23c.07-.15.19-.23.33-.23.15 0 .26.09.33.28l.28.4q.945.795 2.34 1.02c1.395.225 1.88.16 2.86.03s1.95-.37 2.89-.71c.95-.34 1.85-.77 2.73-1.28q1.305-.765 2.31-1.62c.41-.34.91-.73 1.5-1.16s.91-.92.95-1.45c.11-.49.13-.92.06-1.28-.08-.36-.19-.75-.33-1.16q-.105-.345-.03-.51c.075-.165.14-.19.25-.23q.165-.06.36.06c.11.09.21.18.29.29M871.2 629c-.19-.04-.31-.13-.36-.28s-.06-.31 0-.48.15-.33.28-.48.29-.25.47-.28c.59.11.84.4.75.85-.09.44-.47.67-1.14.67"/></svg>