<svg width="39" height="38" viewBox="0 0 39 38" fill="none" xmlns="http://www.w3.org/2000/svg">
<path d="M38.706 15.4463C38.7061 15.446 38.7062 15.4459 38.7063 15.4457L33.6789 11.631C33.6754 11.6284 33.6715 11.6262 33.668 11.6235V10.8359C33.668 10.4261 33.3269 10.0938 32.9062 10.0938C32.4856 10.0938 32.1445 10.4261 32.1445 10.8359V20.905C32.1445 20.9095 32.1451 20.9139 32.1452 20.9184L25.8424 27.0596L25.1126 26.4137C23.972 25.404 22.5821 24.7309 21.0925 24.4497L23.0703 22.5227C23.3677 22.2329 23.3677 21.7629 23.0703 21.473L20.5116 18.98L31.662 14.3481C31.8947 14.2514 32.063 14.0484 32.1111 13.8064C32.1592 13.5644 32.0808 13.3148 31.9018 13.1405L28.2609 9.59285C28.5691 9.10278 28.7343 8.53842 28.7343 7.94912C28.7343 7.10645 28.3976 6.31431 27.7861 5.71841C27.1745 5.12258 26.3615 4.79446 25.4966 4.79446C24.8918 4.79446 24.3126 4.95544 23.8097 5.25573L20.1686 1.70807C19.9896 1.53366 19.7337 1.45706 19.4851 1.50427C19.2366 1.55117 19.0283 1.71527 18.9292 1.94208L13.7959 13.6891L11.033 16.381C10.2566 17.1375 9.82899 18.1433 9.82899 19.2131C9.82899 20.2829 10.2566 21.2886 11.033 22.045C11.8093 22.8015 12.8416 23.2181 13.9395 23.2181C15.0375 23.2181 16.0697 22.8016 16.846 22.045L17.1365 21.762L19.7457 24.3043C19.6639 24.302 19.582 24.3003 19.4998 24.3003C17.42 24.3003 15.4267 25.0508 13.8872 26.4135L13.1574 27.0594L6.85455 20.9182C6.85463 20.9137 6.85524 20.9093 6.85524 20.9047V1.48438H15.3855C15.8062 1.48438 16.1472 1.15202 16.1472 0.742188C16.1472 0.332352 15.8062 0 15.3855 0H6.09375C5.67305 0 5.33203 0.332352 5.33203 0.742188V11.5049C5.32548 11.5098 5.31855 11.5139 5.31215 11.519L0.284807 15.4526C0.284883 15.4527 0.284883 15.4528 0.284959 15.4529C0.111363 15.589 0 15.7973 0 16.0312V34.2148C0 36.3019 1.74266 38 3.88477 38H35.1152C37.2573 38 39 36.3019 39 34.2148V16.0312C39 15.7933 38.8847 15.5821 38.706 15.4463ZM33.668 13.504L37.0899 16.1005L33.668 19.4347V13.504ZM25.4967 6.27898C25.9546 6.27898 26.3851 6.45273 26.7089 6.76823C27.0326 7.08366 27.211 7.50307 27.211 7.94927C27.211 8.13334 27.179 8.31228 27.1205 8.48187L24.9501 6.367C25.1241 6.31008 25.3078 6.27898 25.4967 6.27898ZM19.8891 3.53496L23.2064 6.76719C23.2067 6.76749 23.207 6.76786 23.2073 6.76823C23.2076 6.7686 23.208 6.76882 23.2084 6.76912L26.7088 10.1798L26.7089 10.18L26.7091 10.1801L30.0276 13.4135L28.4104 14.0852L19.2003 5.11122L19.8891 3.53496ZM18.5568 6.58365L26.8998 14.7127L19.3509 17.8486L15.3414 13.9419L18.5568 6.58365ZM15.7689 20.9956C15.2804 21.4717 14.6307 21.7339 13.9397 21.7339C13.2487 21.7339 12.599 21.4717 12.1103 20.9956C11.6217 20.5196 11.3526 19.8865 11.3526 19.2132C11.3526 18.5399 11.6217 17.9069 12.1103 17.4308L14.439 15.1619L18.0974 18.7269L15.7689 20.9956ZM18.2139 20.7125L19.1746 19.7766L21.4544 21.9979L20.4937 22.9339L18.2139 20.7125ZM5.33203 13.4071V19.4348L1.90102 16.0917L5.33203 13.4071ZM2.84357 36.189C2.82202 36.2081 2.80213 36.2283 2.78332 36.2491C2.03478 35.8628 1.52344 35.0961 1.52344 34.2148V17.8231L12.0287 28.0589L2.84357 36.189ZM4.74018 36.5156L7.25568 34.2891H12.8469C13.2676 34.2891 13.6086 33.9567 13.6086 33.5469C13.6086 33.137 13.2676 32.8047 12.8469 32.8047H8.93268L14.9118 27.5123C17.5275 25.197 21.4725 25.197 24.0883 27.5123L34.2598 36.5156H4.74018ZM37.4766 34.2148C37.4766 35.0961 36.9652 35.8628 36.2167 36.2491C36.1979 36.2282 36.178 36.2081 36.1564 36.189L26.9714 28.0589L37.4766 17.8231V34.2148Z" fill="white"/>
</svg>
