<svg width="39" height="38" viewBox="0 0 39 38" fill="none" xmlns="http://www.w3.org/2000/svg">
<path d="M9.89393 3.67041C8.56206 3.67041 7.47852 4.72617 7.47852 6.02389C7.47852 7.3216 8.56206 8.37744 9.89393 8.37744C11.2258 8.37744 12.3094 7.3216 12.3094 6.02389C12.3094 4.72617 11.2258 3.67041 9.89393 3.67041ZM9.89393 7.26416C9.19208 7.26416 8.62109 6.70781 8.62109 6.02389C8.62109 5.34004 9.19208 4.78369 9.89393 4.78369C10.5958 4.78369 11.1668 5.34004 11.1668 6.02389C11.1668 6.70781 10.5958 7.26416 9.89393 7.26416Z" fill="white"/>
<path d="M12.3093 16.5661V14.4144C12.3093 14.1069 12.0536 13.8578 11.738 13.8578H5.91895C5.60337 13.8578 5.34766 14.1069 5.34766 14.4144V16.5661C5.34766 16.8736 5.60337 17.1227 5.91895 17.1227H11.7381C12.0536 17.1227 12.3093 16.8736 12.3093 16.5661ZM11.1667 16.0095H6.49023V14.9711H11.1668L11.1667 16.0095Z" fill="white"/>
<path d="M36.3914 4.62071H32.7651C32.1336 4.62071 31.5828 4.96316 31.2974 5.46732H16.0762V5.11441C16.0762 4.85116 15.887 4.62398 15.6226 4.56972L14.2305 4.28413C14.228 4.27819 14.2255 4.27225 14.2229 4.26632L15.0001 3.10524C15.1477 2.88473 15.1165 2.59365 14.9255 2.40758L13.6054 1.12122C13.4143 0.935082 13.1156 0.904652 12.8893 1.04856L11.6976 1.80589C11.6915 1.80344 11.6854 1.80099 11.6793 1.79847L11.3862 0.441973C11.3306 0.184359 11.0974 0 10.8272 0H8.96017C8.68998 0 8.45682 0.184359 8.40114 0.441973L8.10803 1.79847C8.10194 1.80092 8.09592 1.80337 8.08983 1.80589L6.89819 1.04856C6.67189 0.904727 6.37314 0.93523 6.1821 1.12122L4.86189 2.40751C4.67085 2.59372 4.63977 2.88481 4.78732 3.10524L5.56458 4.26639C5.56206 4.27233 5.55955 4.27819 5.55696 4.28413L4.16477 4.56972C3.90037 4.6239 3.71116 4.85116 3.71116 5.11441V5.46732H3.696C2.18041 5.46732 0.947266 6.66878 0.947266 8.14558V25.461C0.947266 26.9378 2.18034 28.1393 3.696 28.1393H5.86035C6.13655 30.0789 7.88485 31.5514 9.8935 31.5514C10.4858 31.5514 11.0483 31.4266 11.5566 31.2042L10.2645 36.1304C9.75136 38.0862 12.9494 38.7506 13.4423 36.8726L15.7331 28.1394H17.593V36.5015C17.593 37.3165 18.2946 38.0001 19.131 38.0001C19.9675 38.0001 20.669 37.3165 20.669 36.5015V28.1393H22.529L24.8198 36.8724C25.3122 38.7501 28.5109 38.0868 27.9976 36.1303L25.9017 28.1393H34.5663C36.0818 28.1393 37.315 26.9378 37.315 25.461V13.4336C37.315 13.1261 37.0593 12.877 36.7437 12.877C36.4281 12.877 36.1724 13.1261 36.1724 13.4336V25.461C36.1724 26.324 35.4519 27.026 34.5663 27.026L13.9263 27.0261C13.6476 25.1004 11.9458 23.614 9.89358 23.614C7.88485 23.614 6.13663 25.0862 5.86043 27.026H3.696C2.81035 27.026 2.08984 26.324 2.08984 25.461V9.2936H4.69736C4.7084 9.42103 4.76355 9.54468 4.86189 9.6405L6.1821 10.9268C6.37306 11.1128 6.67166 11.1433 6.89812 10.9994L8.08975 10.2421C8.09584 10.2446 8.10194 10.247 8.10803 10.2495L8.40114 11.606C8.45675 11.8636 8.68998 12.048 8.96017 12.048H10.8272C11.0974 12.048 11.3306 11.8636 11.3862 11.606L11.6793 10.2495C11.6854 10.2471 11.6915 10.2446 11.6976 10.2421L12.8893 10.9994C13.1157 11.1434 13.4145 11.1128 13.6054 10.9268L14.9255 9.6405C15.0238 9.54468 15.0789 9.42103 15.0899 9.2936H30.8856L25.5598 14.4828L22.8244 11.8181C22.3986 11.4015 21.6911 11.4017 21.2647 11.8173L19.4889 13.5476C19.2657 13.765 19.2657 14.1174 19.4888 14.3348C19.7119 14.5521 20.0736 14.5522 20.2967 14.3348L22.0441 12.6323L24.7805 15.2978C25.2065 15.7126 25.9136 15.7139 26.3393 15.2977L34.114 7.72231C34.2774 7.56304 34.3262 7.32368 34.2378 7.11565C34.1494 6.90761 33.941 6.77202 33.71 6.77202H32.7649C32.0779 6.77202 32.0786 5.73399 32.7649 5.73399H36.3913C36.6767 5.73399 36.9089 5.95991 36.9089 6.23757V9.7709C36.9089 10.0543 36.6666 10.2904 36.3758 10.2904C36.0819 10.2904 35.8427 10.0573 35.8427 9.7709V8.85088C35.8427 8.62578 35.7036 8.42271 35.4901 8.33662C35.2766 8.2503 35.0309 8.29803 34.8675 8.45723L25.5602 17.5251L22.8236 14.8593C22.3944 14.4413 21.6956 14.4411 21.2647 14.8594L16.5761 19.4285C16.0961 19.8969 15.3362 19.1686 15.8229 18.694L18.3928 16.1902C18.6159 15.9727 18.6159 15.6203 18.3928 15.4029C18.1696 15.1857 17.8079 15.1855 17.5849 15.4029L15.015 17.9068C14.3493 18.5555 14.3767 19.6377 15.064 20.2596C15.7148 20.8483 16.7569 20.828 17.3845 20.2154L22.0442 15.6745L24.7805 18.3399C25.2047 18.7546 25.9146 18.7561 26.3393 18.3406L34.7459 10.1503C34.9218 10.8683 35.5859 11.4038 36.3759 11.4038C37.2886 11.4038 38.0516 10.6606 38.0516 9.77105V6.23757C38.0516 5.34598 37.3068 4.62071 36.3914 4.62071ZM12.3353 36.5967C12.2087 37.0797 11.2275 36.9547 11.3715 36.4061L13.0192 30.1244C13.4948 29.5701 13.8179 28.888 13.9263 28.1394H14.5538L12.3353 36.5967ZM19.5265 36.5014C19.5265 36.9972 18.7356 36.998 18.7356 36.5014V28.1393H19.5265V36.5014ZM26.8907 36.406C27.0344 36.9534 26.0535 37.0792 25.9269 36.5967L23.7085 28.1393H24.7224L26.8907 36.406ZM9.2321 24.8C9.44812 24.7517 9.6707 24.7272 9.89358 24.7272C11.5095 24.7272 12.8241 26.0077 12.8246 27.5817L12.8245 27.5827L12.8246 27.5836C12.8241 29.1577 11.5094 30.4381 9.89358 30.4381C8.29016 30.4381 6.96301 29.1436 6.96301 27.5826C6.96301 26.2442 7.89635 25.0999 9.2321 24.8ZM2.08984 8.14558C2.08984 7.28264 2.81035 6.58061 3.696 6.58061H3.71116V6.93359C3.71116 7.19684 3.90037 7.42403 4.16477 7.47828L5.55696 7.76388C5.55947 7.76981 5.56199 7.77568 5.56458 7.78161L5.29767 8.18032H2.08984V8.14558ZM13.1252 9.82011L12.0579 9.14182C11.6704 8.89571 10.7201 9.28417 10.626 9.71998L10.3636 10.9346H9.42375L9.16134 9.71998C9.06612 9.27883 8.11222 8.89861 7.72946 9.14182L6.66221 9.82011L5.99754 9.17255L6.69367 8.13267C6.94618 7.75512 6.54765 6.82916 6.10037 6.7375L4.85374 6.48182V5.56611L6.10037 5.31043C6.55321 5.21765 6.94313 4.28821 6.69367 3.91526L5.99754 2.87538L6.66221 2.22775L7.72946 2.90604C8.11694 3.15214 9.06726 2.76376 9.16134 2.32795L9.42382 1.11328H10.3637L10.6261 2.32795C10.7213 2.7691 11.6752 3.14918 12.058 2.90604L13.1252 2.22775L13.7898 2.87538L13.0937 3.91526C12.841 4.29274 13.2399 5.21884 13.6871 5.31043L14.9336 5.56611V6.48189L13.6871 6.73758C13.2344 6.83028 12.8441 7.75987 13.0937 8.13274L13.7898 9.17262L13.1252 9.82011ZM32.3761 7.84129L32.0282 8.18024H14.4897L14.2229 7.78161C14.2254 7.77568 14.2279 7.76974 14.2305 7.7638L15.6226 7.47821C15.887 7.42403 16.0762 7.19677 16.0762 6.93352V6.58053H31.124C31.2517 7.19454 31.7503 7.69708 32.3761 7.84129Z" fill="white"/>
<path d="M33.2658 23.306H22.4385C22.1229 23.306 21.8672 23.5552 21.8672 23.8627C21.8672 24.1702 22.1229 24.4193 22.4385 24.4193H33.2658C33.5814 24.4193 33.8371 24.1702 33.8371 23.8627C33.8371 23.5552 33.5813 23.306 33.2658 23.306Z" fill="white"/>
<path d="M33.2658 20.8638H26.8467C26.5311 20.8638 26.2754 21.1129 26.2754 21.4204C26.2754 21.7279 26.5311 21.9771 26.8467 21.9771H33.2658C33.5813 21.9771 33.837 21.7279 33.837 21.4204C33.837 21.1129 33.5813 20.8638 33.2658 20.8638Z" fill="white"/>
<path d="M5.91895 18.1234C5.60337 18.1234 5.34766 18.3726 5.34766 18.6801C5.34766 18.9875 5.60337 19.2367 5.91895 19.2367H9.8939C10.2095 19.2367 10.4652 18.9875 10.4652 18.6801C10.4652 18.3726 10.2095 18.1234 9.8939 18.1234H5.91895Z" fill="white"/>
<path d="M9.89356 28.89C10.2091 28.89 10.4648 28.6408 10.4648 28.3333V26.832C10.4648 26.5245 10.2091 26.2754 9.89356 26.2754C9.57798 26.2754 9.32227 26.5245 9.32227 26.832V28.3333C9.32227 28.6407 9.57798 28.89 9.89356 28.89Z" fill="white"/>
</svg>
