<svg width="39" height="38" viewBox="0 0 39 38" fill="none" xmlns="http://www.w3.org/2000/svg">
<path fill-rule="evenodd" clip-rule="evenodd" d="M13.3599 23.2452H21.6205C21.9604 23.2452 22.2363 22.9764 22.2363 22.6453C22.2363 22.3141 21.9604 22.0453 21.6205 22.0453H13.3599C13.02 22.0453 12.7441 22.3141 12.7441 22.6453C12.7441 22.9764 13.02 23.2452 13.3599 23.2452Z" fill="white"/>
<path fill-rule="evenodd" clip-rule="evenodd" d="M18.5586 22.645V37.0902C18.5586 37.4214 18.8345 37.6902 19.1744 37.6902C19.5138 37.6902 19.7901 37.4214 19.7901 37.0902V22.645C19.7901 22.3138 19.5138 22.045 19.1744 22.045C18.8345 22.045 18.5586 22.3138 18.5586 22.645Z" fill="white"/>
<path fill-rule="evenodd" clip-rule="evenodd" d="M5.37029 0.30957C2.97366 0.30957 1.02734 2.20598 1.02734 4.54154C1.02734 6.8771 2.97366 8.77313 5.37029 8.77313C7.76738 8.77313 9.71369 6.87716 9.71369 4.54154C9.71369 2.20592 7.76738 0.30957 5.37029 0.30957ZM5.37029 1.50957C7.08794 1.50957 8.48212 2.868 8.48212 4.54154C8.48212 6.21476 7.08794 7.57313 5.37029 7.57313C3.65304 7.57313 2.25892 6.21476 2.25892 4.54154C2.25892 2.86794 3.6531 1.50957 5.37029 1.50957Z" fill="white"/>
<path fill-rule="evenodd" clip-rule="evenodd" d="M33.6286 0.30957C31.2315 0.30957 29.2852 2.20598 29.2852 4.54154C29.2852 6.8771 31.2315 8.77313 33.6286 8.77313C36.0252 8.77313 37.9715 6.87716 37.9715 4.54154C37.9715 2.20592 36.0252 0.30957 33.6286 0.30957ZM33.6286 1.50957C35.3458 1.50957 36.7399 2.868 36.7399 4.54154C36.7399 6.21476 35.3458 7.57313 33.6286 7.57313C31.9109 7.57313 30.5167 6.21476 30.5167 4.54154C30.5167 2.86794 31.9109 1.50957 33.6286 1.50957Z" fill="white"/>
<path fill-rule="evenodd" clip-rule="evenodd" d="M8.76517 17.3827C8.86698 17.5827 9.07801 17.7159 9.31653 17.7159L9.5452 17.6727L15.2154 15.4643C16.0881 15.1247 17.0796 15.5387 17.4285 16.3891C17.777 17.2391 17.3518 18.2051 16.4794 18.5451L8.99101 21.4615C8.27544 21.7402 7.46507 21.5147 7.00651 20.9291C6.84642 20.7246 6.5701 20.6422 6.31972 20.7246C6.06974 20.807 5.9014 21.0359 5.9014 21.293V24.3062C5.9014 24.6111 6.13581 24.8671 6.4462 24.9023L11.4304 25.4631C12.6082 25.5955 13.4974 26.5675 13.4974 27.7231V37.0903C13.4974 37.4215 13.7733 37.6903 14.1132 37.6903C14.4531 37.6903 14.7289 37.4215 14.7289 37.0903V27.7231C14.7289 25.9579 13.3709 24.4735 11.5716 24.2711L7.13292 23.7715V22.5187C7.84315 22.8367 8.67733 22.8759 9.4479 22.5759L16.9367 19.6595C18.4401 19.0736 19.1729 17.4087 18.5719 15.9435C17.9709 14.4783 16.2623 13.7643 14.7585 14.3499L9.57109 16.3703L6.59109 11.6179C6.17032 10.9468 5.48431 10.4743 4.69488 10.3115C4.67066 10.3068 4.64645 10.3015 4.62179 10.2967C3.79455 10.1263 2.93203 10.3119 2.25548 10.8059C1.57893 11.3003 1.15405 12.0547 1.08997 12.8763C0.727871 17.5187 0.0016743 26.8227 0.0016743 26.8227C0.000386378 26.8379 0 26.8531 0 26.8683C0 28.6315 1.35516 30.1147 3.152 30.3195L7.59593 30.8787V37.0903C7.59593 37.4215 7.8718 37.6902 8.21169 37.6902C8.55157 37.6902 8.82744 37.4214 8.82744 37.0903V30.3511C8.82744 30.0491 8.59755 29.7947 8.29044 29.7559L3.29844 29.1283C2.12888 28.9968 1.24414 28.0375 1.23145 26.8927C1.23145 26.8895 2.31769 12.9671 2.31769 12.9671C2.35504 12.4907 2.60135 12.0528 2.99385 11.7663C3.38673 11.4795 3.88677 11.3719 4.36703 11.4707L4.43967 11.4855C4.89785 11.58 5.29563 11.8544 5.53988 12.2436C6.47138 13.7292 8.35935 16.7404 8.72763 17.328C8.74012 17.3471 8.75242 17.3655 8.76517 17.3827Z" fill="white"/>
<path fill-rule="evenodd" clip-rule="evenodd" d="M3.87548 18.2556L5.85425 21.4119C6.60015 22.6015 8.11829 23.0935 9.44717 22.5759C9.76284 22.4531 9.91682 22.1035 9.79041 21.7963C9.66438 21.4887 9.30557 21.3387 8.99028 21.4615C8.21933 21.7619 7.33832 21.4767 6.90519 20.7863L4.92649 17.6299C4.74914 17.3475 4.36978 17.2583 4.08 17.4307C3.79009 17.6036 3.69813 17.9731 3.87548 18.2556Z" fill="white"/>
<path fill-rule="evenodd" clip-rule="evenodd" d="M28.8591 17.2795L22.8966 18.1011C21.293 18.3219 20.1756 19.7699 20.4022 21.3323C20.6288 22.8943 22.1149 23.9835 23.7185 23.7627L31.0517 22.7518C31.337 22.7126 31.6112 22.6334 31.867 22.5186V23.7714L27.4284 24.271C25.629 24.4734 24.271 25.9577 24.271 27.7229V37.0902C24.271 37.4214 24.5469 37.6901 24.8868 37.6901C25.2267 37.6901 25.5026 37.4213 25.5026 37.0902V27.7229C25.5026 26.5674 26.3917 25.5953 27.5695 25.4629L32.5521 24.9021H32.5509C32.8592 24.8693 33.0985 24.6149 33.0985 24.3061V21.2925C33.0985 21.0353 32.9301 20.8069 32.6802 20.7245C32.4302 20.6417 32.1539 20.7242 31.9934 20.9285C31.7237 21.2726 31.3242 21.5025 30.8792 21.5638L23.5459 22.5741C22.6153 22.7025 21.7531 22.0706 21.6218 21.1638C21.49 20.2573 22.1386 19.4174 23.0689 19.2889L29.3175 18.4281L29.233 18.4337L29.7584 18.1465L33.0902 12.8325C33.5163 12.1533 34.2968 11.7634 35.1117 11.8233C35.1232 11.8242 35.1343 11.8249 35.1458 11.8257C36.2435 11.9065 37.1068 12.7729 37.1569 13.8441L37.7682 26.8809C37.7616 28.0305 36.8749 28.9957 35.7012 29.1281L30.8131 29.6781C30.5056 29.7125 30.2724 29.9641 30.2683 30.2658L30.1722 37.0818C30.1677 37.413 30.4398 37.6854 30.7794 37.6901C31.1193 37.6945 31.3989 37.4294 31.4038 37.0981L31.4921 30.8093L35.8424 30.3201C37.6418 30.1177 38.9998 28.6329 38.9998 26.8681C38.9998 26.8589 38.9994 26.8497 38.9989 26.8405C38.9989 26.8405 38.5908 18.1349 38.3872 13.7893C38.3084 12.1117 36.957 10.7554 35.2385 10.6293C35.227 10.6285 35.2155 10.6273 35.2044 10.6265C33.9285 10.5329 32.7064 11.1432 32.0393 12.2069L28.8591 17.2795Z" fill="white"/>
<path fill-rule="evenodd" clip-rule="evenodd" d="M25.3151 2.10954C25.3151 1.63236 25.1205 1.17432 24.7741 0.836755C24.4276 0.499123 23.958 0.30957 23.4678 0.30957H14.8767C13.8561 0.30957 13.0293 1.11559 13.0293 2.10954V9.73514C13.0293 10.1271 13.2641 10.4831 13.6303 10.6455C13.9965 10.8079 14.4263 10.7467 14.7297 10.4891C15.3221 9.98631 16.1567 9.27748 16.6218 8.88231C16.7343 8.78712 16.8779 8.73473 17.0266 8.73473H23.4677C23.9579 8.73473 24.4276 8.54512 24.774 8.20755C25.1205 7.86992 25.3151 7.41194 25.3151 6.93476V2.10954H25.3151ZM14.2609 9.29555V2.10954C14.2609 1.77837 14.5364 1.50957 14.8766 1.50957H23.4677C23.6311 1.50957 23.7879 1.57275 23.9033 1.68557C24.0187 1.79795 24.0836 1.95035 24.0836 2.10954V6.93476C24.0836 7.09395 24.0187 7.24636 23.9033 7.35873C23.788 7.47155 23.6311 7.53473 23.4677 7.53473H17.0266C16.5804 7.53473 16.1494 7.69191 15.8127 7.97752L14.2609 9.29555Z" fill="white"/>
<path fill-rule="evenodd" clip-rule="evenodd" d="M16.4302 4.02623H22.0101C22.35 4.02623 22.6258 3.75743 22.6258 3.42626C22.6258 3.09509 22.35 2.82629 22.0101 2.82629H16.4302C16.0903 2.82629 15.8145 3.09509 15.8145 3.42626C15.8145 3.75743 16.0903 4.02623 16.4302 4.02623Z" fill="white"/>
<path fill-rule="evenodd" clip-rule="evenodd" d="M16.4302 6.21434H19.1737C19.5132 6.21434 19.7895 5.94554 19.7895 5.61437C19.7895 5.28314 19.5132 5.0144 19.1737 5.0144H16.4302C16.0903 5.0144 15.8145 5.2832 15.8145 5.61437C15.8144 5.94554 16.0903 6.21434 16.4302 6.21434Z" fill="white"/>
<path fill-rule="evenodd" clip-rule="evenodd" d="M29.2005 23.0072L31.0507 22.752C31.919 22.6324 32.6867 22.1408 33.144 21.412L35.1227 18.2556C35.3 17.9732 35.2081 17.6037 34.9182 17.4309C34.6284 17.2584 34.2491 17.3477 34.0717 17.6301L32.093 20.7865C31.8279 21.2092 31.382 21.4945 30.8783 21.5641L29.028 21.8189C28.6914 21.8653 28.4566 22.1693 28.5042 22.4973C28.5518 22.8248 28.8638 23.0536 29.2005 23.0072Z" fill="white"/>
</svg>
