<svg width="16" height="16" viewBox="0 0 16 16" fill="none" xmlns="http://www.w3.org/2000/svg">
<path d="M16 14.4695C16 15.3133 15.3125 15.9695 14.5 15.9695H1.5C0.65625 15.9695 0 15.3133 0 14.4695V6.25076C0 5.78201 0.21875 5.34451 0.5625 5.06326C1.34375 4.46951 1.96875 3.96951 5.6875 1.28201C6.21875 0.907013 7.25 -0.0304874 8 0.000762599C8.71875 -0.0304874 9.75 0.907013 10.2812 1.28201C14 3.96951 14.625 4.46951 15.4062 5.06326C15.75 5.34451 16 5.78201 16 6.25076V14.4695ZM13.9375 8.34451C13.8438 8.21951 13.6875 8.18826 13.5625 8.28201C12.875 8.81326 11.8438 9.56326 10.2812 10.6883C9.75 11.0633 8.71875 12.0008 8 11.9695C7.25 12.0008 6.21875 11.0633 5.6875 10.6883C4.125 9.56326 3.09375 8.81326 2.40625 8.28201C2.28125 8.18826 2.125 8.21951 2.03125 8.34451L1.75 8.75076C1.71875 8.78201 1.71875 8.84451 1.71875 8.90701C1.71875 8.96951 1.75 9.06326 1.8125 9.09451C2.53125 9.62576 3.53125 10.3758 5.09375 11.5008C5.75 11.9695 6.875 13.0008 8 12.9695C9.09375 13.0008 10.2188 11.9695 10.875 11.5008C12.4375 10.3758 13.4375 9.62576 14.1562 9.09451C14.2188 9.06326 14.25 8.96951 14.25 8.90701C14.25 8.84451 14.25 8.78201 14.2188 8.75076L13.9375 8.34451Z" fill="#3E4073"/>
</svg>
