<svg width="50" height="50" viewBox="0 0 50 50" fill="none" xmlns="http://www.w3.org/2000/svg">
<path d="M10.6908 22.7649H17.09C17.306 22.7649 17.5131 22.6794 17.6659 22.5271C17.8186 22.3749 17.9044 22.1684 17.9044 21.9531C17.9044 21.7377 17.8186 21.5313 17.6659 21.379C17.5131 21.2268 17.306 21.1412 17.09 21.1412H10.6908C10.4748 21.1412 10.2677 21.2268 10.1149 21.379C9.9622 21.5313 9.87639 21.7377 9.87639 21.9531C9.87639 22.1684 9.9622 22.3749 10.1149 22.5271C10.2677 22.6794 10.4748 22.7649 10.6908 22.7649Z" fill="#F7A400"/>
<path d="M10.6908 26.1144H14.4838C14.6998 26.1144 14.9069 26.0288 15.0597 25.8766C15.2124 25.7243 15.2982 25.5178 15.2982 25.3025C15.2982 25.0872 15.2124 24.8807 15.0597 24.7284C14.9069 24.5762 14.6998 24.4907 14.4838 24.4907H10.6908C10.4748 24.4907 10.2677 24.5762 10.1149 24.7284C9.9622 24.8807 9.87639 25.0872 9.87639 25.3025C9.87639 25.5178 9.9622 25.7243 10.1149 25.8766C10.2677 26.0288 10.4748 26.1144 10.6908 26.1144Z" fill="#F7A400"/>
<path d="M4.98976 43.3533H28.9668C29.1828 43.3533 29.39 43.2678 29.5427 43.1155C29.6955 42.9633 29.7813 42.7568 29.7813 42.5415C29.7813 42.3262 29.6955 42.1197 29.5427 41.9674C29.39 41.8152 29.1828 41.7296 28.9668 41.7296H5.79489V5.79037H22.6002V12.0393C22.6015 13.1967 23.0633 14.3063 23.8843 15.1247C24.7053 15.9431 25.8185 16.4035 26.9796 16.4047H33.7045V21.1644C33.7045 21.3797 33.7903 21.5862 33.9431 21.7385C34.0958 21.8907 34.303 21.9763 34.519 21.9763C34.735 21.9763 34.9421 21.8907 35.0949 21.7385C35.2476 21.5862 35.3334 21.3797 35.3334 21.1644V15.5975C35.3386 15.4874 35.3187 15.3777 35.2751 15.2764C35.2316 15.1752 35.1656 15.0851 35.0821 15.0129L23.9918 4.40327C23.8351 4.25639 23.6297 4.17216 23.4147 4.16668H4.98976C4.88203 4.16545 4.77512 4.18554 4.67523 4.22579C4.57534 4.26604 4.48446 4.32565 4.40784 4.40116C4.33122 4.47667 4.2704 4.56658 4.22889 4.66569C4.18738 4.76479 4.16601 4.87113 4.16602 4.97852V42.5554C4.16969 42.7699 4.2584 42.9742 4.41275 43.1238C4.5671 43.2733 4.77455 43.3558 4.98976 43.3533ZM24.2291 6.8852L32.4899 14.7717H26.9796C26.2505 14.7705 25.5516 14.4812 25.0361 13.9673C24.5205 13.4534 24.2304 12.7568 24.2291 12.03V6.8852Z" fill="#F7A400"/>
<path d="M36.7528 25.5762C36.7386 25.5438 36.7214 25.5128 36.7016 25.4834C35.4199 23.5045 33.453 22.0645 31.1752 21.4375C28.8974 20.8104 26.4679 21.0402 24.349 22.0831C22.2302 23.126 20.57 24.9091 19.6846 27.093C18.7992 29.2769 18.7503 31.7091 19.5472 33.9266L17.3087 37.6379L12.3197 31.2777C12.2314 31.1657 12.115 31.0788 11.9823 31.0258C11.8497 30.9728 11.7053 30.9556 11.5638 30.9758C11.4224 30.996 11.2887 31.053 11.1763 31.141C11.0639 31.229 10.9767 31.3449 10.9235 31.4772L8.59654 37.2622C8.51569 37.4621 8.51783 37.6859 8.60249 37.8842C8.68715 38.0826 8.8474 38.2393 9.04797 38.3199C9.24854 38.4005 9.47302 38.3983 9.67201 38.3139C9.87101 38.2295 10.0282 38.0698 10.1091 37.8699L11.9241 33.3885L16.7549 39.5492C16.8307 39.6457 16.9275 39.7237 17.0379 39.7775C17.1483 39.8314 17.2696 39.8596 17.3925 39.8601H17.4437C17.5751 39.8521 17.7025 39.8124 17.8152 39.7446C17.9279 39.6767 18.0224 39.5826 18.0906 39.4704L20.3896 35.6849C20.7822 36.3376 21.2509 36.9418 21.7858 37.4848C23.4884 39.1803 25.7665 40.1784 28.1709 40.2823C30.5753 40.3862 32.9315 39.5884 34.7749 38.0462L35.6219 38.974C35.4402 39.3825 35.3875 39.8365 35.4706 40.2756C35.5537 40.7147 35.7688 41.1183 36.0873 41.4327L39.8942 45.1904C40.0987 45.3942 40.3414 45.5559 40.6085 45.6662C40.8756 45.7765 41.1619 45.8333 41.451 45.8333C41.7401 45.8333 42.0264 45.7765 42.2935 45.6662C42.5606 45.5559 42.8033 45.3942 43.0077 45.1904C43.4195 44.7783 43.6507 44.2203 43.6507 43.6386C43.6507 43.057 43.4195 42.499 43.0077 42.0868L39.2194 38.3106C39.0155 38.1053 38.7726 37.9426 38.5049 37.8319C38.2373 37.7212 37.9502 37.6647 37.6604 37.6658C37.3762 37.6654 37.0948 37.7206 36.832 37.8281L35.971 36.9003C37.2992 35.345 38.0934 33.4068 38.2374 31.3693C38.3815 29.3318 37.8678 27.3018 36.7715 25.5762H36.7528ZM37.2182 39.4611C37.2714 39.4081 37.3345 39.366 37.404 39.3373C37.4735 39.3086 37.5479 39.2939 37.6231 39.2939C37.6983 39.2939 37.7728 39.3086 37.8423 39.3373C37.9117 39.366 37.9749 39.4081 38.028 39.4611L41.8163 43.2373C41.924 43.3452 41.9845 43.4911 41.9845 43.6433C41.9845 43.7954 41.924 43.9414 41.8163 44.0492C41.7059 44.1523 41.5603 44.2096 41.4091 44.2096C41.2579 44.2096 41.1123 44.1523 41.0019 44.0492L37.2368 40.2869C37.1817 40.2332 37.1377 40.1692 37.1076 40.0985C37.0774 40.0278 37.0617 39.9518 37.0613 39.875C37.0608 39.7981 37.0757 39.722 37.1051 39.6509C37.1344 39.5799 37.1776 39.5154 37.2322 39.4611H37.2182ZM34.2583 36.3297C33.103 37.5031 31.6151 38.296 29.9944 38.6017C28.3738 38.9074 26.6981 38.7113 25.1925 38.0398C23.687 37.3684 22.4236 36.2536 21.5723 34.8454C20.721 33.4372 20.3224 31.803 20.4302 30.1623C20.538 28.5217 21.147 26.9533 22.1753 25.6677C23.2036 24.3822 24.6019 23.4412 26.1825 22.9712C27.7631 22.5012 29.4501 22.5246 31.0169 23.0384C32.5837 23.5522 33.9552 24.5317 34.9471 25.8453L28.4874 31.9968L24.5363 27.7195C24.449 27.6282 24.342 27.5579 24.2236 27.5137C24.1051 27.4695 23.9781 27.4526 23.8521 27.4643C23.7265 27.4777 23.6057 27.5198 23.4991 27.5874C23.3926 27.655 23.3031 27.7462 23.2378 27.854L21.7718 30.271C21.6601 30.4556 21.6265 30.6768 21.6785 30.886C21.7304 31.0953 21.8636 31.2754 22.0487 31.3867C22.2339 31.4981 22.4558 31.5315 22.6657 31.4798C22.8756 31.428 23.0563 31.2952 23.168 31.1107L24.0709 29.6169L27.8545 33.7086C28.0039 33.8664 28.2094 33.9597 28.4269 33.9684H28.4549C28.6642 33.9686 28.8657 33.8889 29.018 33.7457L35.836 27.2509C36.5493 28.7377 36.7824 30.4084 36.5032 32.0328C36.2239 33.6572 35.4461 35.1552 34.2769 36.3204L34.2583 36.3297Z" fill="#F7A400"/>
<path d="M45.0136 16.4093H41.337C41.121 16.4093 40.9138 16.4949 40.7611 16.6471C40.6083 16.7994 40.5225 17.0058 40.5225 17.2212C40.5225 17.4365 40.6083 17.643 40.7611 17.7952C40.9138 17.9475 41.121 18.033 41.337 18.033H43.1986L37.5347 23.4005C37.4196 23.5129 37.3405 23.6569 37.3075 23.8142C37.2745 23.9715 37.2891 24.135 37.3494 24.2841C37.4097 24.4331 37.513 24.5609 37.6462 24.6514C37.7795 24.7419 37.9366 24.7909 38.0978 24.7922C38.3068 24.7929 38.5076 24.7112 38.6563 24.5649L44.2038 19.3088V20.8907C44.2038 21.106 44.2896 21.3125 44.4423 21.4648C44.5951 21.617 44.8022 21.7026 45.0182 21.7026C45.2342 21.7026 45.4414 21.617 45.5941 21.4648C45.7469 21.3125 45.8327 21.106 45.8327 20.8907V17.2212C45.8315 17.0054 45.7446 16.7989 45.5911 16.6468C45.4377 16.4947 45.23 16.4093 45.0136 16.4093Z" fill="#F7A400"/>
<path d="M13.083 15.8758C12.3337 15.8758 11.6868 15.4119 11.6868 14.8459C11.6868 14.6306 11.601 14.4241 11.4482 14.2719C11.2955 14.1196 11.0883 14.0341 10.8723 14.0341C10.6563 14.0341 10.4492 14.1196 10.2964 14.2719C10.1437 14.4241 10.0579 14.6306 10.0579 14.8459C10.0579 16.3119 11.4122 17.4995 13.0736 17.4995H13.2831V17.8335C13.2831 18.0488 13.3689 18.2553 13.5216 18.4076C13.6744 18.5598 13.8815 18.6454 14.0975 18.6454C14.3135 18.6454 14.5207 18.5598 14.6734 18.4076C14.8261 18.2553 14.9119 18.0488 14.9119 17.8335V17.4949C16.5455 17.467 17.8672 16.2933 17.8672 14.8459V14.7717C17.8525 14.2322 17.652 13.7141 17.2995 13.3044C16.947 12.8948 16.4639 12.6184 15.9312 12.5217L14.9119 12.3083V10.0073C15.638 10.0073 16.2383 10.4712 16.2383 11.0233C16.2383 11.2386 16.3241 11.4451 16.4769 11.5974C16.6296 11.7496 16.8368 11.8351 17.0528 11.8351C17.2688 11.8351 17.4759 11.7496 17.6287 11.5974C17.7814 11.4451 17.8672 11.2386 17.8672 11.0233C17.8672 9.58053 16.5501 8.41147 14.9119 8.379V8.12385C14.9119 7.90853 14.8261 7.70204 14.6734 7.54979C14.5207 7.39754 14.3135 7.312 14.0975 7.312C13.8815 7.312 13.6744 7.39754 13.5216 7.54979C13.3689 7.70204 13.2831 7.90853 13.2831 8.12385V8.37436H13.0736C11.4122 8.37436 10.0626 9.56198 10.0626 11.0233V11.1161C10.0876 11.6457 10.2888 12.1519 10.6342 12.5551C10.9797 12.9582 11.4498 13.2354 11.9707 13.3429L13.297 13.6166V15.8758H13.083ZM14.9213 13.9506L15.5821 14.0851C15.987 14.1825 16.2476 14.4423 16.2476 14.7532V14.8459C16.2476 15.3887 15.6473 15.8433 14.9213 15.8712V13.9506ZM12.3011 11.7516C12.1497 11.7173 12.012 11.639 11.9051 11.5268C11.7983 11.4145 11.7272 11.2732 11.7007 11.1207V11.0233C11.7007 10.4666 12.3337 9.99805 13.0969 9.99805H13.3063V11.9558L12.3011 11.7516Z" fill="#F7A400"/>
</svg>
