<svg width="37" height="37" viewBox="0 0 37 37" fill="none" xmlns="http://www.w3.org/2000/svg">
<path d="M3.11571 19.8784C3.56388 19.8791 3.9939 19.7014 4.31079 19.3844C4.35472 19.3405 7.05802 16.6422 7.05802 16.6422L8.44515 18.0305C8.97331 18.5591 9.68991 18.8561 10.4371 18.8561C11.1844 18.8561 11.901 18.5591 12.4291 18.0305L20.6922 9.76424L23.2052 12.2784C24.306 13.3774 26.0889 13.3774 27.1897 12.2784L32.2201 7.24106L32.638 7.65896C33.0101 8.03076 33.5647 8.15179 34.0579 7.96885C34.5511 7.78592 34.8927 7.33251 34.9324 6.80795L35.214 3.18032V3.17469C35.2384 2.81903 35.1078 2.47019 34.8559 2.21801C34.6039 1.96582 34.2552 1.83492 33.8995 1.85903L30.2687 2.14063C29.7443 2.17814 29.2901 2.51837 29.1067 3.01108C28.9232 3.50378 29.0444 4.05821 29.4166 4.42952L29.8344 4.84855L25.1966 9.48883L22.6842 6.97466C22.1561 6.44605 21.4395 6.14903 20.6922 6.14903C19.945 6.14903 19.2284 6.44605 18.7002 6.97466L10.4371 15.2415L9.05114 13.852C7.95042 12.7527 6.16731 12.7527 5.06659 13.852L1.92682 17.0004C1.4443 17.4818 1.29936 18.2066 1.55962 18.8366C1.81988 19.4667 2.43407 19.8778 3.11571 19.8784ZM2.72148 17.7945L5.8635 14.6456C6.18041 14.3283 6.61044 14.15 7.05887 14.15C7.50729 14.15 7.93732 14.3283 8.25423 14.6456L10.039 16.4315C10.1446 16.5373 10.2879 16.5967 10.4374 16.5967C10.5869 16.5967 10.7302 16.5373 10.8359 16.4315L19.4966 7.76935C20.1655 7.13011 21.2189 7.13011 21.8879 7.76935L24.4008 10.2835C24.8466 10.7093 25.5483 10.7093 25.9941 10.2835L31.0295 5.24505C31.249 5.02518 31.249 4.6691 31.0295 4.44923L30.2112 3.63089C30.1493 3.57346 30.1298 3.48355 30.1622 3.4056C30.1906 3.3228 30.2668 3.26582 30.3543 3.26198L33.9829 2.98207C34.0112 2.98079 34.0388 2.99189 34.0583 3.01248C34.0806 3.03385 34.0926 3.06386 34.091 3.09471L33.8094 6.72178C33.8033 6.8077 33.7476 6.88214 33.6669 6.91231C33.5862 6.94247 33.4953 6.92282 33.4343 6.86202L32.6183 6.0448C32.3947 5.83346 32.045 5.83346 31.8214 6.0448L26.3928 11.4815C25.7234 12.1189 24.6715 12.1189 24.0021 11.4815L21.4891 8.9673C21.2783 8.75506 20.9914 8.63601 20.6922 8.63669C20.3936 8.63635 20.1072 8.75514 19.8964 8.96673L11.6334 17.2341C10.9643 17.873 9.91112 17.873 9.24206 17.2341L7.85493 15.8458C7.41515 15.4064 6.70258 15.4064 6.2628 15.8458L3.51276 18.5914C3.2921 18.8074 2.93932 18.8074 2.71866 18.5914C2.61214 18.4879 2.55203 18.3457 2.55203 18.1972C2.55203 18.0486 2.61214 17.9064 2.71866 17.8029L2.72148 17.7945Z" fill="#F7A400"/>
<path d="M23.9536 23.2576C23.9586 20.6056 22.1128 18.3094 19.5217 17.7443C16.9306 17.1793 14.2964 18.4985 13.1968 20.9118C12.0972 23.3252 12.8302 26.1787 14.9567 27.7633H14.9426C14.2749 27.7603 13.6687 28.1526 13.3977 28.7629C13.1267 29.3732 13.2424 30.086 13.6924 30.5793C13.1066 31.2161 13.1066 32.1955 13.6924 32.8322C13.2424 33.3255 13.1267 34.0383 13.3977 34.6486C13.6687 35.2589 14.2749 35.6512 14.9426 35.6482H21.7009C22.3686 35.6512 22.9749 35.2589 23.2458 34.6486C23.5168 34.0383 23.4012 33.3255 22.9512 32.8322C23.5369 32.1955 23.5369 31.2161 22.9512 30.5793C23.4012 30.086 23.5168 29.3732 23.2458 28.7629C22.9749 28.1526 22.3686 27.7603 21.7009 27.7633H21.6868C23.1115 26.7037 23.9519 25.0332 23.9536 23.2576ZM22.2641 31.7058C22.2641 32.0168 22.0119 32.269 21.7009 32.269H14.9426C14.6316 32.269 14.3795 32.0168 14.3795 31.7058C14.3795 31.3947 14.6316 31.1426 14.9426 31.1426H21.7009C22.0119 31.1426 22.2641 31.3947 22.2641 31.7058ZM21.7009 34.5218H14.9426C14.6316 34.5218 14.3795 34.2697 14.3795 33.9586C14.3795 33.6475 14.6316 33.3954 14.9426 33.3954H21.7009C22.0119 33.3954 22.2641 33.6475 22.2641 33.9586C22.2641 34.2697 22.0119 34.5218 21.7009 34.5218ZM21.7009 28.8897C22.0119 28.8897 22.2641 29.1419 22.2641 29.4529C22.2641 29.764 22.0119 30.0161 21.7009 30.0161H14.9426C14.6316 30.0161 14.3795 29.764 14.3795 29.4529C14.3795 29.1419 14.6316 28.8897 14.9426 28.8897H21.7009ZM13.8163 23.2576C13.8163 20.7692 15.8334 18.7519 18.3218 18.7519C20.8101 18.7519 22.8273 20.7692 22.8273 23.2576C22.8273 25.746 20.8101 27.7633 18.3218 27.7633C15.8346 27.7605 13.8191 25.7449 13.8163 23.2576Z" fill="#F7A400"/>
<path fill-rule="evenodd" clip-rule="evenodd" d="M18.3218 22.6944C18.0485 22.6941 17.8149 22.4978 17.7676 22.2286C17.7203 21.9595 17.8731 21.6953 18.1299 21.6019C18.3867 21.5085 18.6734 21.6129 18.81 21.8496C18.9073 22.0303 19.0952 22.1439 19.3005 22.1459C19.5057 22.1479 19.6958 22.0381 19.7966 21.8593C19.8974 21.6804 19.8929 21.4609 19.7849 21.2864C19.5808 20.9437 19.262 20.6844 18.8849 20.5542V20.4416C18.8849 20.1305 18.6328 19.8784 18.3218 19.8784C18.0107 19.8784 17.7586 20.1305 17.7586 20.4416V20.5452C16.9833 20.8183 16.518 21.6107 16.6573 22.4208C16.7966 23.2309 17.4998 23.8224 18.3218 23.8208C18.595 23.8211 18.8286 24.0175 18.8759 24.2866C18.9232 24.5557 18.7705 24.82 18.5137 24.9133C18.2569 25.0067 17.9701 24.9023 17.8335 24.6656C17.6733 24.4067 17.3364 24.322 17.0728 24.4743C16.8092 24.6266 16.7143 24.9608 16.8586 25.2289C17.0631 25.5717 17.3823 25.8311 17.7597 25.961V26.0737C17.7597 26.3847 18.0119 26.6369 18.3229 26.6369C18.6339 26.6369 18.8861 26.3847 18.8861 26.0737V25.97C19.6615 25.6969 20.1268 24.9041 19.9872 24.0939C19.8477 23.2836 19.1439 22.6923 18.3218 22.6944Z" fill="#F7A400"/>
<path d="M29.5855 13.1198C27.1594 13.1171 25.0049 14.6703 24.2406 16.973C23.4762 19.2756 24.2743 21.8089 26.2205 23.2576H26.2064C25.5387 23.2547 24.9324 23.6469 24.6614 24.2572C24.3905 24.8675 24.5061 25.5803 24.9561 26.0737C24.3704 26.7104 24.3704 27.6898 24.9561 28.3265C24.3704 28.9632 24.3704 29.9426 24.9561 30.5793C24.3704 31.2161 24.3704 32.1955 24.9561 32.8322C24.5061 33.3255 24.3905 34.0383 24.6614 34.6486C24.9324 35.2589 25.5387 35.6512 26.2064 35.6482H32.9646C33.6324 35.6512 34.2386 35.2589 34.5096 34.6486C34.7805 34.0383 34.6649 33.3255 34.2149 32.8322C34.8007 32.1955 34.8007 31.2161 34.2149 30.5793C34.8007 29.9426 34.8007 28.9632 34.2149 28.3265C34.8007 27.6898 34.8007 26.7104 34.2149 26.0737C34.6649 25.5803 34.7805 24.8675 34.5096 24.2572C34.2386 23.6469 33.6324 23.2547 32.9646 23.2576H32.95C34.8968 21.8093 35.6954 19.2758 34.9311 16.9728C34.1668 14.6699 32.0119 13.1167 29.5855 13.1198ZM33.5278 27.2001C33.5278 27.5111 33.2757 27.7633 32.9646 27.7633H26.2064C25.8953 27.7633 25.6432 27.5111 25.6432 27.2001C25.6432 26.889 25.8953 26.6369 26.2064 26.6369H32.9646C33.2757 26.6369 33.5278 26.889 33.5278 27.2001ZM33.5278 29.4529C33.5278 29.764 33.2757 30.0161 32.9646 30.0161H26.2064C25.8953 30.0161 25.6432 29.764 25.6432 29.4529C25.6432 29.1419 25.8953 28.8897 26.2064 28.8897H32.9646C33.2757 28.8897 33.5278 29.1419 33.5278 29.4529ZM33.5278 31.7058C33.5278 32.0168 33.2757 32.269 32.9646 32.269H26.2064C25.8953 32.269 25.6432 32.0168 25.6432 31.7058C25.6432 31.3947 25.8953 31.1426 26.2064 31.1426H32.9646C33.2757 31.1426 33.5278 31.3947 33.5278 31.7058ZM32.9646 34.5218H26.2064C25.8953 34.5218 25.6432 34.2697 25.6432 33.9586C25.6432 33.6475 25.8953 33.3954 26.2064 33.3954H32.9646C33.2757 33.3954 33.5278 33.6475 33.5278 33.9586C33.5278 34.2697 33.2757 34.5218 32.9646 34.5218ZM32.9646 24.384C33.2757 24.384 33.5278 24.6362 33.5278 24.9472C33.5278 25.2583 33.2757 25.5105 32.9646 25.5105H26.2064C25.8953 25.5105 25.6432 25.2583 25.6432 24.9472C25.6432 24.6362 25.8953 24.384 26.2064 24.384H32.9646ZM29.5855 23.2576C27.0972 23.2576 25.08 21.2404 25.08 18.7519C25.08 16.2635 27.0972 14.2463 29.5855 14.2463C32.0738 14.2463 34.091 16.2635 34.091 18.7519C34.0882 21.2392 32.0727 23.2548 29.5855 23.2576Z" fill="#F7A400"/>
<path fill-rule="evenodd" clip-rule="evenodd" d="M29.5855 18.1887C29.3123 18.1885 29.0786 17.9921 29.0314 17.723C28.9841 17.4538 29.1368 17.1896 29.3936 17.0962C29.6504 17.0028 29.9372 17.1073 30.0738 17.3439C30.234 17.6028 30.5709 17.6876 30.8345 17.5353C31.0981 17.383 31.1929 17.0488 31.0487 16.7807C30.8448 16.4378 30.5259 16.1784 30.1487 16.0485V15.9359C30.1487 15.6248 29.8965 15.3727 29.5855 15.3727C29.2745 15.3727 29.0223 15.6248 29.0223 15.9359V16.0395C28.2471 16.3126 27.7818 17.105 27.9211 17.9151C28.0604 18.7252 28.7636 19.3167 29.5855 19.3152C29.8587 19.3154 30.0924 19.5118 30.1397 19.7809C30.1869 20.0501 30.0342 20.3143 29.7774 20.4077C29.5206 20.501 29.2338 20.3966 29.0972 20.16C28.9371 19.9011 28.6002 19.8163 28.3366 19.9686C28.073 20.1209 27.9781 20.4551 28.1223 20.7232C28.3265 21.0662 28.6459 21.3257 29.0234 21.4553V21.568C29.0234 21.879 29.2756 22.1312 29.5866 22.1312C29.8977 22.1312 30.1498 21.879 30.1498 21.568V21.4644C30.9253 21.1912 31.3906 20.3985 31.251 19.5882C31.1114 18.778 30.4077 18.1866 29.5855 18.1887Z" fill="#F7A400"/>
<path d="M3.69298 32.269H3.6789C2.74578 32.269 1.98934 33.0254 1.98934 33.9586C1.98934 34.8918 2.74578 35.6482 3.6789 35.6482H10.4371C11.3703 35.6482 12.1267 34.8918 12.1267 33.9586C12.1267 33.0254 11.3703 32.269 10.4371 32.269H10.4231C12.3695 30.8186 13.1677 28.2842 12.4037 25.9801C11.6397 23.676 9.48538 22.1207 7.05802 22.1207C4.63066 22.1207 2.47639 23.676 1.71238 25.9801C0.948379 28.2842 1.74655 30.8186 3.69298 32.269ZM10.4371 33.3954C10.7482 33.3954 11.0003 33.6476 11.0003 33.9586C11.0003 34.2697 10.7482 34.5218 10.4371 34.5218H3.6789C3.36786 34.5218 3.11571 34.2697 3.11571 33.9586C3.11571 33.6476 3.36786 33.3954 3.6789 33.3954H10.4371ZM7.05802 23.2576C9.54634 23.2576 11.5635 25.2749 11.5635 27.7633C11.5635 30.2517 9.54634 32.269 7.05802 32.269C4.5697 32.269 2.55252 30.2517 2.55252 27.7633C2.55532 25.276 4.57086 23.2604 7.05802 23.2576Z" fill="#F7A400"/>
<path fill-rule="evenodd" clip-rule="evenodd" d="M7.05802 28.3265C7.33126 28.3268 7.56489 28.5231 7.61217 28.7923C7.65944 29.0614 7.50672 29.3256 7.24992 29.419C6.99313 29.5124 6.70636 29.408 6.56974 29.1713C6.47247 28.9906 6.28457 28.877 6.07932 28.875C5.87407 28.873 5.68398 28.9828 5.58319 29.1617C5.4824 29.3405 5.48687 29.56 5.59486 29.7345C5.79931 30.0774 6.11854 30.3368 6.49596 30.4667V30.5793C6.49596 30.8904 6.74811 31.1426 7.05915 31.1426C7.37019 31.1426 7.62233 30.8904 7.62233 30.5793V30.4757C8.39779 30.2026 8.86308 29.4098 8.7235 28.5996C8.58391 27.7893 7.88017 27.198 7.05802 27.2001C6.78478 27.1998 6.55115 27.0034 6.50388 26.7343C6.4566 26.4652 6.60933 26.2009 6.86612 26.1076C7.12291 26.0142 7.40968 26.1186 7.5463 26.3553C7.64357 26.536 7.83148 26.6495 8.03672 26.6516C8.24197 26.6536 8.43206 26.5438 8.53285 26.3649C8.63364 26.1861 8.62917 25.9666 8.52118 25.7921C8.31701 25.4494 7.99821 25.1901 7.62121 25.0599V24.9472C7.62121 24.6362 7.36906 24.384 7.05802 24.384C6.74698 24.384 6.49483 24.6362 6.49483 24.9472V25.0509C5.71958 25.3239 5.2543 26.1164 5.39358 26.9265C5.53286 27.7366 6.23608 28.3281 7.05802 28.3265Z" fill="#F7A400"/>
</svg>
