<svg width="37" height="37" viewBox="0 0 37 37" fill="none" xmlns="http://www.w3.org/2000/svg">
<g clip-path="url(#clip0_66_5506)">
<path d="M34.18 6.9736C34.0991 6.06614 33.3511 5.38181 32.44 5.38181H27.9201V4.71571H28.0081C28.6535 4.71571 29.1786 4.19064 29.1786 3.5453V1.92261C29.1786 1.27727 28.6535 0.752197 28.0081 0.752197H14.7051C14.4156 0.752197 14.181 0.986784 14.181 1.2763C14.181 1.56581 14.4156 1.8004 14.7051 1.8004H28.0081C28.0756 1.8004 28.1304 1.85518 28.1304 1.92261V3.5453C28.1304 3.61273 28.0756 3.66752 28.0081 3.66752H8.41339C8.34595 3.66752 8.2911 3.61273 8.2911 3.5453V1.92261C8.2911 1.85518 8.34595 1.8004 8.41339 1.8004H12.2478C12.5372 1.8004 12.7719 1.56581 12.7719 1.2763C12.7719 0.986784 12.5372 0.752197 12.2478 0.752197H8.41339C7.76798 0.752197 7.2429 1.27727 7.2429 1.92261V3.5453C7.2429 4.19064 7.76798 4.71571 8.41339 4.71571H8.50137V5.38181H3.98154C3.07044 5.38181 2.32238 6.06614 2.24146 6.9736C2.23084 7.09226 1.99534 9.91701 3.15206 13.0455C4.21039 15.908 6.63844 19.5628 12.2016 20.9972C13.0972 21.7048 14.1198 22.2585 15.2293 22.6173L15.4931 23.0527C15.9916 23.8759 16.2552 24.8489 16.2552 25.8667C16.2552 26.4885 16.1561 27.0959 15.9607 27.6719L15.5944 28.7514H14.3756C13.1249 28.7514 12.1073 29.769 12.1073 31.0197V32.1176H10.1999C9.66158 32.1176 9.22364 32.5556 9.22364 33.0939V35.5558C9.22364 36.0941 9.66158 36.532 10.1999 36.532H26.2217C26.76 36.532 27.1979 36.0941 27.1979 35.5558V33.0939C27.1979 32.5556 26.76 32.1176 26.2217 32.1176H24.3143V31.0197C24.3143 29.769 23.2967 28.7514 22.046 28.7514H20.8272L20.4609 27.6719C20.2654 27.0959 20.1663 26.4885 20.1663 25.8667C20.1663 24.849 20.4299 23.8759 20.9284 23.0527L21.1922 22.6173C22.3017 22.2585 23.3243 21.7048 24.2199 20.9972C29.7831 19.5628 32.2111 15.908 33.2694 13.0455C34.4262 9.91701 34.1907 7.09233 34.18 6.9736ZM8.69542 15.3119C7.71822 14.3971 6.9696 13.2622 6.45759 11.9095C6.10183 10.9696 5.86899 9.94915 5.76536 8.8758H8.50137V13.3769C8.50137 14.0394 8.56838 14.6865 8.69542 15.3119ZM4.13527 12.6821C3.05947 9.77243 3.27582 7.17583 3.28553 7.06675C3.31789 6.70379 3.61711 6.43008 3.98154 6.43008H8.50137V7.82767H5.72196C5.43881 7.82767 5.16712 7.94766 4.97649 8.15688C4.78564 8.36638 4.69131 8.64841 4.71765 8.93073C4.82799 10.1133 5.08354 11.2404 5.47724 12.2806C6.2548 14.335 7.5134 15.939 9.23622 17.081C9.57521 17.8992 10.0229 18.6613 10.5614 19.3493C6.76429 17.7753 4.976 14.9558 4.13527 12.6821ZM26.1497 33.1658V35.4838H10.2718V33.1658H26.1497ZM22.046 29.7996C22.7187 29.7996 23.2661 30.3469 23.2661 31.0197V32.1176H13.1555V31.0197C13.1555 30.3469 13.7029 29.7996 14.3756 29.7996H22.046ZM19.4683 28.0087L19.7203 28.7514H16.7011L16.9532 28.0086C17.1855 27.3239 17.3033 26.6033 17.3033 25.8667C17.3033 24.8358 17.0729 23.8405 16.6348 22.9577C17.1479 23.0418 17.6741 23.0863 18.2108 23.0863C18.7473 23.0863 19.2736 23.0418 19.7867 22.9577C19.3485 23.8405 19.1181 24.8358 19.1181 25.8667C19.1182 26.6033 19.236 27.3239 19.4683 28.0087ZM18.2108 22.038C13.435 22.038 9.54956 18.1526 9.54956 13.3769V4.71571H26.8719V13.3769C26.8719 18.1527 22.9866 22.038 18.2108 22.038ZM32.2863 12.6821C31.4456 14.9559 29.6572 17.7757 25.8599 19.3496C26.3993 18.6604 26.8478 17.8968 27.187 17.077C28.6663 16.0947 29.8056 14.7717 30.59 13.1151C30.7139 12.8536 30.6023 12.541 30.3407 12.4172C30.0792 12.2933 29.7667 12.4049 29.6427 12.6665C29.1571 13.6921 28.5166 14.5758 27.7257 15.3152C27.8531 14.6887 27.9203 14.0406 27.9203 13.377V8.87587H30.6563C30.6042 9.41513 30.5175 9.94992 30.3986 10.4662C30.3337 10.7483 30.5097 11.0296 30.7919 11.0945C31.0737 11.1598 31.3552 10.9834 31.4201 10.7013C31.5525 10.1263 31.648 9.53057 31.704 8.93073C31.7303 8.64841 31.636 8.36638 31.4452 8.15688C31.2545 7.94766 30.9828 7.82767 30.6997 7.82767H27.9203V6.43008H32.4401C32.8045 6.43008 33.1038 6.70379 33.1361 7.06682C33.1457 7.17583 33.362 9.77243 32.2863 12.6821Z" fill="#F7A400"/>
<path d="M21.6572 10.9311L20.1543 10.7127C20.0888 10.7032 20.0323 10.6621 20.003 10.6028L19.3309 9.24099C19.119 8.81151 18.6898 8.54471 18.2108 8.54471C17.7319 8.54471 17.3027 8.81151 17.0907 9.24099L16.4186 10.6028C16.3893 10.6621 16.3328 10.7032 16.2673 10.7127L14.7645 10.9311C14.2905 10.9999 13.9041 11.3256 13.7561 11.7812C13.6081 12.2367 13.7292 12.7274 14.0722 13.0617L15.1597 14.1217C15.207 14.1679 15.2286 14.2343 15.2174 14.2996L14.9607 15.7964C14.8797 16.2685 15.0701 16.7365 15.4576 17.0181C15.845 17.2995 16.3492 17.336 16.7732 17.1132L18.1173 16.4065C18.1759 16.3757 18.2458 16.3757 18.3043 16.4065L19.6485 17.1132C19.8329 17.2101 20.0324 17.258 20.2309 17.258C20.4888 17.258 20.7451 17.1771 20.964 17.018C21.3515 16.7364 21.5419 16.2683 21.4609 15.7964L21.2042 14.2995C21.193 14.2343 21.2146 14.1678 21.262 14.1217L22.3495 13.0616C22.6925 12.7273 22.8136 12.2366 22.6656 11.7811C22.5176 11.3256 22.1311 10.9999 21.6572 10.9311ZM21.6178 12.3111L20.5303 13.3712C20.2359 13.6582 20.1016 14.0714 20.171 14.4767L20.4278 15.9736C20.4461 16.0807 20.3856 16.1427 20.3478 16.1701C20.3102 16.1976 20.2324 16.2362 20.1362 16.1854L18.792 15.4787C18.61 15.3831 18.4104 15.3352 18.2108 15.3352C18.0111 15.3352 17.8115 15.3831 17.6295 15.4787L16.2854 16.1854C16.1892 16.2361 16.1115 16.1975 16.0737 16.1701C16.036 16.1427 15.9754 16.0808 15.9937 15.9736L16.2505 14.4767C16.32 14.0714 16.1857 13.6582 15.8912 13.3711L14.8038 12.3112C14.7259 12.2353 14.7384 12.1495 14.7529 12.1052C14.7673 12.0608 14.8075 11.9841 14.9151 11.9684L16.4179 11.75C16.8249 11.6908 17.1765 11.4354 17.3584 11.0667L18.0305 9.70492C18.0786 9.60744 18.1641 9.59291 18.2107 9.59291C18.2573 9.59291 18.3428 9.60744 18.3908 9.70492L19.0629 11.0667C19.2449 11.4354 19.5965 11.6909 20.0034 11.75L21.5064 11.9684C21.6139 11.9841 21.6542 12.0608 21.6685 12.1052C21.6831 12.1495 21.6956 12.2353 21.6178 12.3111Z" fill="#F7A400"/>
</g>
<defs>
<clipPath id="clip0_66_5506">
<rect width="35.7798" height="35.7798" fill="white" transform="translate(0.320312 0.752197)"/>
</clipPath>
</defs>
</svg>
