<svg width="40" height="40" viewBox="0 0 40 40" fill="none" xmlns="http://www.w3.org/2000/svg">
<path d="M39.6984 16.2592C39.6985 16.259 39.6987 16.2588 39.6987 16.2586L34.5425 12.2432C34.5388 12.2404 34.5349 12.2381 34.5312 12.2353V11.4062C34.5312 10.9748 34.1815 10.625 33.75 10.625C33.3185 10.625 32.9687 10.9748 32.9687 11.4062V22.0052C32.9687 22.01 32.9694 22.0146 32.9695 22.0194L26.505 28.4838L25.7565 27.8039C24.5866 26.7411 23.1611 26.0326 21.6334 25.7366L23.6618 23.7081C23.9669 23.403 23.9669 22.9084 23.6618 22.6032L21.0376 19.9789L32.4738 15.1033C32.7125 15.0015 32.8852 14.7878 32.9345 14.533C32.9837 14.2783 32.9034 14.0156 32.7198 13.8321L28.9855 10.0977C29.3016 9.58187 29.4711 8.98781 29.4711 8.3675C29.4711 7.48047 29.1257 6.64664 28.4985 6.01937C27.8713 5.39219 27.0374 5.0468 26.1504 5.0468C25.5301 5.0468 24.936 5.21625 24.4202 5.53234L20.6858 1.79797C20.5022 1.61437 20.2397 1.53375 19.9847 1.58344C19.7298 1.63281 19.5162 1.80555 19.4145 2.0443L14.1496 14.4095L11.3159 17.2432C10.5196 18.0395 10.081 19.0982 10.081 20.2243C10.081 21.3504 10.5196 22.4091 11.3159 23.2053C12.1121 24.0016 13.1709 24.4402 14.297 24.4402C15.423 24.4402 16.4817 24.0016 17.278 23.2053L17.5759 22.9073L20.252 25.5834C20.1681 25.581 20.0841 25.5793 19.9998 25.5793C17.8666 25.5793 15.8223 26.3692 14.2433 27.8037L13.4948 28.4836L7.03031 22.0191C7.03039 22.0144 7.03102 22.0098 7.03102 22.0049V1.5625H15.78C16.2115 1.5625 16.5612 1.21266 16.5612 0.78125C16.5612 0.349844 16.2115 0 15.78 0H6.25C5.81852 0 5.46875 0.349844 5.46875 0.78125V12.1105C5.46203 12.1155 5.45492 12.1199 5.44836 12.1252L0.292109 16.2659C0.292187 16.266 0.292187 16.2661 0.292266 16.2662C0.114219 16.4095 0 16.6287 0 16.875V36.0156C0 38.2126 1.78734 40 3.98437 40H36.0156C38.2127 40 40 38.2126 40 36.0156V16.875C40 16.6245 39.8817 16.4022 39.6984 16.2592ZM34.5312 14.2148L38.0409 16.9479L34.5312 20.4576V14.2148ZM26.1505 6.60945C26.6201 6.60945 27.0616 6.79234 27.3937 7.12445C27.7258 7.45648 27.9087 7.89797 27.9087 8.36766C27.9087 8.56141 27.8759 8.74976 27.8159 8.92828L25.5898 6.70211C25.7684 6.64219 25.9567 6.60945 26.1505 6.60945ZM20.3991 3.72102L23.8014 7.12336C23.8017 7.12367 23.802 7.12406 23.8023 7.12445C23.8027 7.12484 23.803 7.12508 23.8034 7.12539L27.3937 10.7156L27.3937 10.7158L27.3939 10.7159L30.7975 14.1195L29.1389 14.8266L19.6926 5.38023L20.3991 3.72102ZM19.0327 6.93016L27.5895 15.487L19.847 18.788L15.7348 14.6757L19.0327 6.93016ZM16.1733 22.1006C15.6722 22.6018 15.0059 22.8778 14.2971 22.8778C13.5884 22.8778 12.922 22.6018 12.4209 22.1006C11.9197 21.5995 11.6437 20.9332 11.6437 20.2245C11.6437 19.5157 11.9197 18.8494 12.4209 18.3482L14.8092 15.9598L18.5615 19.7125L16.1733 22.1006ZM18.6809 21.8027L19.6662 20.8174L22.0045 23.1557L21.0192 24.1409L18.6809 21.8027ZM5.46875 14.1127V20.4577L1.94977 16.9387L5.46875 14.1127ZM2.91648 38.0937C2.89437 38.1137 2.87398 38.1351 2.85469 38.1569C2.08695 37.7503 1.5625 36.9433 1.5625 36.0156V18.7612L12.3371 29.5357L2.91648 38.0937ZM4.86172 38.4375L7.44172 36.0937H13.1763C13.6078 36.0937 13.9576 35.7439 13.9576 35.3125C13.9576 34.8811 13.6078 34.5312 13.1763 34.5312H9.16172L15.2941 28.9603C17.977 26.5232 22.0231 26.5232 24.7059 28.9603L35.1383 38.4375H4.86172ZM38.4375 36.0156C38.4375 36.9433 37.913 37.7503 37.1453 38.1569C37.126 38.135 37.1056 38.1137 37.0835 38.0937L27.663 29.5357L38.4375 18.7612V36.0156Z" fill="#F7A400"/>
</svg>
